<svg width="1200" height="1200" viewBox="0 0 1200 1200" fill="none" xmlns="http://www.w3.org/2000/svg">
<path d="M600 0C268.629 0 0 268.629 0 600C0 931.371 268.629 1200 600 1200C931.371 1200 1200 931.371 1200 600C1200 268.629 931.371 0 600 0ZM578.979 209.766V325.489H621.827V209.766C641.597 211.382 661.175 215.323 680.201 221.119V325.489H723.048V238.184C741.697 247.467 759.501 258.682 775.782 272.168C775.868 272.24 775.915 272.316 776.002 272.388V699.903C775.916 699.974 775.869 700.05 775.782 700.123C727.027 740.361 664.608 763.453 600.001 763.477C536.856 763.356 473.958 741.324 424.22 700.123C424.134 700.052 424.087 699.976 424 699.903V272.388C424.086 272.316 424.134 272.24 424.22 272.168C440.614 258.639 458.641 247.245 477.687 237.817V325.488H520.608V220.825C539.513 215.104 559.06 211.319 578.979 209.766V209.766ZM339.771 551.367H390.308V745.093C447.533 791.823 520.48 819.873 600 819.873C679.52 819.873 752.469 791.823 809.692 745.093V551.367H860.228V770.288C844.542 784.764 827.614 797.892 809.692 809.619C768.402 836.634 721.693 855.931 671.484 865.43V936.621H756.005V990.234H443.995V936.621H528.516V865.43C478.307 855.931 431.598 836.634 390.308 809.619C372.386 797.892 355.456 784.764 339.771 770.288V551.367ZM528.516 865.43C551.663 869.809 575.583 872.095 600 872.095C624.417 872.095 648.337 869.809 671.484 865.43V840.161H528.516V865.43Z" fill="#0C42A7"/>
</svg>
